<svg width="140" height="146" viewBox="0 0 140 146" fill="none" xmlns="http://www.w3.org/2000/svg">
<path d="M62.5781 61.9219C62.6719 61.5469 62.5312 61.2422 62.1562 61.0078C61.7812 60.8203 61.4766 60.9141 61.2422 61.2891C60.4453 62.8828 59.4375 63.5156 58.2188 63.1875C58.2188 62.4844 58.1953 61.8047 58.1484 61.1484C58.1016 61.1953 59.8125 59.8594 63.2812 57.1406C63.6094 56.8594 63.6094 56.5547 63.2812 56.2266C62.9531 55.8516 62.6016 55.8047 62.2266 56.0859C61.9453 56.3203 61.2422 56.9297 60.1172 57.9141C59.2266 58.6641 58.5 59.25 57.9375 59.6719C57.75 58.7812 57.5391 57.9609 57.3047 57.2109C57.3984 57.1172 57.4219 57.0938 57.375 57.1406C60.7031 54.3281 62.7188 52.7109 63.4219 52.2891C64.1719 54.1641 64.3359 56.1094 63.9141 58.125C63.6797 59.3906 63.2344 60.6562 62.5781 61.9219ZM57.4453 68.3906C57.8203 67.1719 58.0547 65.9297 58.1484 64.6641C59.6484 64.9922 60.9375 64.3828 62.0156 62.8359C60.9375 64.5703 59.4141 66.4219 57.4453 68.3906ZM56.7422 55.8047C56.7422 55.7578 56.7188 55.7344 56.6719 55.7344C56.6719 55.6875 56.6719 55.6641 56.6719 55.6641C56.0156 54.1641 55.1484 52.8281 54.0703 51.6562C54.1641 51.6094 56.2266 50.2734 60.2578 47.6484C61.2891 48.6328 62.1328 49.7344 62.7891 50.9531C61.8047 51.5625 59.7891 53.1797 56.7422 55.8047ZM31.9922 83.0156C31.3359 82.9688 30.8906 83.25 30.6562 83.8594C30.4688 84.4219 30.5625 84.9375 30.9375 85.4062C31.0312 89.4375 33.1875 101.977 37.4062 123.023C37.3125 123.023 37.1953 123.047 37.0547 123.094C35.5547 123.516 33.1875 123.867 29.9531 124.148C25.3594 124.523 22.7344 124.43 22.0781 123.867C21.7969 123.633 21.5156 123.516 21.2344 123.516C18.6562 109.172 16.5938 96.7734 15.0469 86.3203C14.6719 83.7422 13.6172 77.6484 11.8828 68.0391C11.6953 66.9609 11.5078 65.3438 11.3203 63.1875C11.0859 60.9844 10.8984 59.3672 10.7578 58.3359C10.6641 57.8672 10.2656 56.7422 9.5625 54.9609C9 53.5547 8.76562 52.3828 8.85938 51.4453C13.1719 49.5234 21.3516 48.4219 33.3984 48.1406C43.3828 47.9531 49.9922 50.3672 53.2266 55.3828C57.3984 61.7578 56.6016 68.1562 50.8359 74.5781C45.3516 80.7188 39.0703 83.5312 31.9922 83.0156ZM35.5781 98.6953C36.6094 96.3047 38.6953 93.8438 41.8359 91.3125C41.9766 92.3438 42.1641 93.6328 42.3984 95.1797C42.1172 94.9922 41.8359 95.0391 41.5547 95.3203C41.3203 95.6016 40.4062 96.7969 38.8125 98.9062C37.7344 100.359 36.75 101.484 35.8594 102.281C35.625 101.016 35.4141 99.9375 35.2266 99.0469C35.3672 98.9531 35.4844 98.8359 35.5781 98.6953ZM39.375 85.3359C38.3438 86.7891 36.9141 88.1719 35.0859 89.4844C34.7578 89.1094 34.4062 89.0625 34.0312 89.3438C33.9375 88.0781 33.8906 86.9297 33.8906 85.8984C36.375 85.8984 38.9062 85.4297 41.4844 84.4922C41.4375 86.0391 41.5078 87.75 41.6953 89.625C38.4141 92.1562 36.1406 94.5469 34.875 96.7969C34.5938 94.7812 34.3828 93 34.2422 91.4531C34.5234 91.5 35.0156 91.2891 35.7188 90.8203C37.7344 89.4141 39.375 87.8203 40.6406 86.0391C40.875 85.6641 40.7812 85.3594 40.3594 85.125C39.9844 84.8906 39.6562 84.9609 39.375 85.3359ZM45.4219 112.336C45.4219 112.523 45.4219 112.805 45.4219 113.18C45.3281 113.18 45.2109 113.227 45.0703 113.32C44.2266 113.93 43.2656 114.844 42.1875 116.062C40.6875 117.703 39.7969 118.664 39.5156 118.945C39.0938 117.164 38.9062 116.32 38.9531 116.414C39.4219 115.57 40.3594 114.258 41.7656 112.477C43.0312 110.836 43.9219 109.477 44.4375 108.398C44.625 107.977 44.5078 107.648 44.0859 107.414C43.6641 107.18 43.3594 107.273 43.1719 107.695C43.3125 107.32 41.7422 109.547 38.4609 114.375C38.3203 113.672 38.0859 112.57 37.7578 111.07C38.3203 110.273 39.1875 108.938 40.3594 107.062C41.4375 105.281 42.3281 103.945 43.0312 103.055C43.3125 102.68 43.2891 102.328 42.9609 102C42.6328 101.672 42.3047 101.695 41.9766 102.07C41.3203 102.914 40.5234 104.086 39.5859 105.586C38.4609 107.461 37.7109 108.656 37.3359 109.172C36.8203 106.969 36.4219 105.141 36.1406 103.688C36.3281 103.688 36.5156 103.617 36.7031 103.477C36.3281 103.805 38.2969 101.414 42.6094 96.3047C43.0312 99.0703 43.3125 100.992 43.4531 102.07C43.5938 102.914 43.9688 104.602 44.5781 107.133C45.0938 109.242 45.375 110.977 45.4219 112.336ZM39.8672 120.773C39.8203 120.586 39.8203 120.516 39.8672 120.562C40.4297 120.047 41.3672 119.062 42.6797 117.609C43.8516 116.297 44.8125 115.336 45.5625 114.727C45.7031 115.477 45.8672 116.156 46.0547 116.766C44.5547 117.375 42.4922 118.711 39.8672 120.773ZM30.0938 42.0234C30.4688 42.0703 30.8672 42.1172 31.2891 42.1641C29.7422 43.5234 28.3594 44.3203 27.1406 44.5547C26.7656 44.6484 26.6016 44.8828 26.6484 45.2578C24.0703 45.3047 21.7266 45.4688 19.6172 45.75C23.4609 43.9219 26.9531 42.6797 30.0938 42.0234ZM37.8281 42.4453C35.3438 44.0859 33.7969 45 33.1875 45.1875C31.875 45.1875 30.6797 45.1875 29.6016 45.1875C30.4922 44.6719 31.7109 43.7344 33.2578 42.375C34.4766 42.4219 36 42.4453 37.8281 42.4453ZM39.375 42.4453C42.3281 42.3984 44.4844 42.4219 45.8438 42.5156C43.6406 44.1562 42 45.2109 40.9219 45.6797C39.4219 45.4922 37.8516 45.3516 36.2109 45.2578C36.0234 45.2578 36 45.2578 36.1406 45.2578C36.4219 45.1172 36.9141 44.7891 37.6172 44.2734C38.2266 43.8984 38.7188 43.5937 39.0938 43.3594C39.4688 43.125 39.5625 42.8203 39.375 42.4453ZM54.2812 44.0625C52.4062 45.0469 50.4375 46.2422 48.375 47.6484C46.8281 46.9922 45.1172 46.4766 43.2422 46.1016C43.8984 45.6797 44.7188 45.1172 45.7031 44.4141C46.875 43.5234 47.6719 42.9375 48.0938 42.6562C50.3906 42.9375 52.4531 43.4063 54.2812 44.0625ZM55.8281 44.6953C56.3906 44.9766 56.8828 45.2344 57.3047 45.4688C57.9141 45.7969 58.5234 46.1953 59.1328 46.6641C55.5234 48.9141 53.5078 50.2266 53.0859 50.6016C52.1016 49.7578 51.0234 49.0078 49.8516 48.3516C51.8203 47.0391 53.7188 45.9375 55.5469 45.0469C55.6875 44.9531 55.7812 44.8359 55.8281 44.6953ZM64.125 47.6484C60.4688 43.2891 55.2656 40.7812 48.5156 40.125C46.9219 39.9844 43.9688 39.8672 39.6562 39.7734C35.8594 39.7266 32.8594 39.5391 30.6562 39.2109C30.5156 39.2109 30.3516 39.2109 30.1641 39.2109C29.9297 39.1641 29.6953 39.1641 29.4609 39.2109C26.0391 39.8672 18.6328 43.1484 7.24219 49.0547C7.00781 49.1953 6.82031 49.3594 6.67969 49.5469C6.39844 49.7344 6.23438 49.9922 6.1875 50.3203C5.85938 51.6797 6.04688 53.3906 6.75 55.4531C7.6875 58.2656 8.32031 61.6641 8.64844 65.6484C8.88281 68.0859 9.375 71.2031 10.125 75C11.1094 80.1094 11.6953 83.2266 11.8828 84.3516C14.6484 102.258 16.9453 116.18 18.7734 126.117C18.9141 126.727 19.2656 127.078 19.8281 127.172C20.3438 127.219 20.8125 127.031 21.2344 126.609C22.3125 127.078 24.4922 127.266 27.7734 127.172C31.9453 126.984 35.2969 126.539 37.8281 125.836C37.9688 125.789 38.1094 125.742 38.25 125.695C38.7188 126.023 39.2344 126 39.7969 125.625C40.4062 125.297 40.6641 124.781 40.5703 124.078L40.5 124.008C40.5 123.961 40.5 123.938 40.5 123.938C43.8281 121.266 46.1953 119.719 47.6016 119.297C48.2578 119.672 48.8672 119.602 49.4297 119.086C50.0391 118.617 50.1094 118.055 49.6406 117.398C48.9375 116.414 48.4453 114 48.1641 110.156C48.1172 109.594 47.5547 107.039 46.4766 102.492C44.7891 95.2734 44.0859 88.9688 44.3672 83.5781C44.3672 83.4844 44.3672 83.3672 44.3672 83.2266C49.6172 80.6484 53.4844 76.9219 55.9688 72.0469C56.625 72.5625 57.2578 72.5391 57.8672 71.9766C61.8984 68.3203 64.6172 64.5469 66.0234 60.6562C67.8984 55.7344 67.2656 51.3984 64.125 47.6484ZM34.3828 70.0078C35.4609 69.2578 36.9375 67.7578 38.8125 65.5078C38.8594 65.7422 38.8828 65.8359 38.8828 65.7891C38.9297 67.6172 37.4297 69.0234 34.3828 70.0078ZM31.5703 68.3203C31.5703 68.3203 31.5234 68.3438 31.4297 68.3906C31.4297 68.3438 31.4062 68.2734 31.3594 68.1797C31.3594 68.1328 31.3594 68.0859 31.3594 68.0391C31.7812 67.7109 32.5078 67.125 33.5391 66.2812C34.4766 65.5312 35.2031 64.9688 35.7188 64.5938C35.4375 64.875 35.2734 65.0625 35.2266 65.1562C33.5859 66.9375 32.3672 67.9922 31.5703 68.3203ZM33.3281 60.0938C32.1094 61.6406 31.0547 62.6953 30.1641 63.2578C29.9297 62.2266 29.7656 61.2891 29.6719 60.4453C30.7969 60.0234 32.0156 59.9062 33.3281 60.0938ZM37.1953 61.9922C36.5391 62.3672 34.4531 63.8672 30.9375 66.4922C30.75 65.7422 30.6094 65.1328 30.5156 64.6641C31.5938 64.1484 33.0234 62.7656 34.8047 60.5156C35.7422 60.8438 36.5391 61.3359 37.1953 61.9922ZM41.6953 64.6641C41.6016 63.7266 41.3203 62.8359 40.8516 61.9922C40.8516 61.9922 40.8516 61.9688 40.8516 61.9219C39.9141 60.2344 38.4375 58.9453 36.4219 58.0547C36.1875 57.5859 35.8594 57.4688 35.4375 57.7031C32.5312 56.7656 29.8828 56.9766 27.4922 58.3359C26.9766 58.6172 26.7422 59.0391 26.7891 59.6016C26.7422 59.7422 26.7188 59.8828 26.7188 60.0234C26.8594 61.5703 27.2578 63.6094 27.9141 66.1406C28.6641 69.2344 29.1328 71.25 29.3203 72.1875C29.4609 72.8906 29.8828 73.2422 30.5859 73.2422C30.9609 73.6172 31.4062 73.7344 31.9219 73.5938C38.9062 71.8594 42.1641 68.8828 41.6953 64.6641ZM123.75 88.5703C125.25 87.0234 126.328 85.8516 126.984 85.0547C127.266 84.7266 127.242 84.3984 126.914 84.0703C126.539 83.7891 126.188 83.8125 125.859 84.1406C125.578 84.5156 124.125 86.0859 121.5 88.8516C120.047 89.0391 118.781 89.1797 117.703 89.2734C119.391 86.7422 122.297 83.5078 126.422 79.5703C127.125 79.5234 127.383 79.5 127.195 79.5C127.102 81.6562 127.242 84.5156 127.617 88.0781C126.117 88.2656 124.828 88.4297 123.75 88.5703ZM115.594 87.0938C115.641 87 115.664 86.9531 115.664 86.9531C116.648 84.8438 118.242 82.5 120.445 79.9219C121.57 79.7812 122.859 79.6641 124.312 79.5703C120.516 83.2266 117.75 86.4375 116.016 89.2031C115.781 88.1719 115.641 87.4688 115.594 87.0938ZM115.172 84.7734C114.984 83.4141 114.914 82.1953 114.961 81.1172C115.195 81.1172 115.43 81.0938 115.664 81.0469C116.461 80.7656 117.305 80.5312 118.195 80.3438C116.977 81.8906 115.969 83.3672 115.172 84.7734ZM115.312 77.8828C116.953 76.5703 118.148 75.3516 118.898 74.2266C120.352 74.7422 121.5 75.1641 122.344 75.4922C122.016 75.8672 121.594 76.3594 121.078 76.9688C119.016 77.2031 117.117 77.5781 115.383 78.0938C115.383 78.0469 115.359 77.9766 115.312 77.8828ZM114.117 76.9688C113.836 76.9688 113.578 77.0156 113.344 77.1094C113.25 77.0156 113.109 76.9219 112.922 76.8281C112.734 76.7344 112.594 76.6641 112.5 76.6172C114.047 75.1172 115.055 73.8984 115.523 72.9609C116.039 73.1953 116.719 73.4531 117.562 73.7344C116.859 74.6719 115.711 75.75 114.117 76.9688ZM106.945 88.7109C106.898 88.4297 106.734 88.2188 106.453 88.0781C106.172 87.9375 105.914 87.9844 105.68 88.2188C100.43 86.0625 97.875 85.0078 98.0156 85.0547C97.1719 84.8203 96.6562 85.1484 96.4688 86.0391C96.2344 86.8828 96.5156 87.4922 97.3125 87.8672C96.75 88.7109 96.4922 90.1641 96.5391 92.2266C96.7734 97.9453 96.7969 101.578 96.6094 103.125C96.6094 103.125 96.4922 106.711 96.2578 113.883C96.0234 119.273 96.0938 123.281 96.4688 125.906C94.4531 125.203 92.7891 124.594 91.4766 124.078C88.1484 122.719 86.4609 121.641 86.4141 120.844C86.4141 120 85.9688 119.578 85.0781 119.578C84.8906 117.703 84.6562 110.906 84.375 99.1875C84.1875 89.9531 83.8359 81.75 83.3203 74.5781C83.1328 71.8125 82.7109 67.8047 82.0547 62.5547C81.3516 57.1172 80.9062 53.1094 80.7188 50.5312C80.6719 50.0156 80.5781 48.2812 80.4375 45.3281C80.3438 43.2656 80.2031 41.5547 80.0156 40.1953C79.3594 35.9297 79.2422 33.1875 79.6641 31.9688C79.8984 32.1563 80.8828 32.6484 82.6172 33.4453C84.7266 34.4766 88.2656 35.9297 93.2344 37.8047C97.125 39.3047 99.6797 40.2422 100.898 40.6172C101.836 40.8984 103.172 41.2266 104.906 41.6016C107.016 41.9766 108.422 42.2578 109.125 42.4453C112.406 43.2891 114.82 44.6016 116.367 46.3828C116.789 46.8047 117.281 46.9453 117.844 46.8047C117.75 46.9453 117.703 47.0156 117.703 47.0156C116.484 48.8906 115.945 51.5859 116.086 55.1016C116.133 55.8984 116.25 57.3516 116.438 59.4609C116.625 61.3359 116.719 62.7656 116.719 63.75C116.625 63.5156 116.484 63.3047 116.297 63.1172C113.906 61.0078 110.344 58.875 105.609 56.7188C105.469 56.1094 105.117 55.9453 104.555 56.2266C101.133 54.7266 98.7891 53.6484 97.5234 52.9922C96.8203 52.6172 96.2344 52.7812 95.7656 53.4844C95.3438 54.0938 95.3438 54.6797 95.7656 55.2422C95.1562 57.0703 95.1328 59.5312 95.6953 62.625C96.3984 66.375 96.7031 68.8594 96.6094 70.0781C96.5625 70.7344 96.8203 71.2266 97.3828 71.5547C97.8984 71.8359 98.3906 71.8594 98.8594 71.625C99.1406 72.2344 99.6094 72.5391 100.266 72.5391C100.031 72.5391 100.055 72.6094 100.336 72.75C100.57 72.8906 101.039 73.1484 101.742 73.5234C102.539 73.9922 103.898 74.8125 105.82 75.9844C110.461 78.75 112.57 80.0156 112.148 79.7812C111.914 81.8906 112.242 85.1953 113.133 89.6953C111.352 89.8828 109.289 89.5547 106.945 88.7109ZM110.25 105.234C110.344 105.703 110.602 107.25 111.023 109.875C110.133 110.812 108 112.406 104.625 114.656C101.859 116.531 99.9375 118.289 98.8594 119.93C98.8594 119.133 98.8359 118.359 98.7891 117.609C98.8359 117.516 98.8594 117.516 98.8594 117.609C99.4219 115.266 101.016 112.969 103.641 110.719C104.109 110.344 105.234 109.43 107.016 107.977C108.422 106.898 109.5 105.984 110.25 105.234ZM111.797 114.727C107.812 117.117 103.805 120.539 99.7734 124.992C99.6797 124.711 99.4922 124.5 99.2109 124.359C99.1641 123.891 99.1172 123.375 99.0703 122.812C99.7734 120.609 101.508 118.5 104.273 116.484C104.695 116.203 105.914 115.406 107.93 114.094C109.383 113.109 110.508 112.266 111.305 111.562C111.492 112.734 111.656 113.789 111.797 114.727ZM112.008 116.273C112.102 117.539 112.172 118.711 112.219 119.789C111.609 120.398 110.625 121.289 109.266 122.461C107.953 123.586 106.969 124.453 106.312 125.062C104.578 125.391 102.867 125.578 101.18 125.625C104.789 121.641 108.398 118.523 112.008 116.273ZM112.148 123.445C111.211 123.82 110.227 124.148 109.195 124.43C109.43 124.242 109.945 123.797 110.742 123.094C111.352 122.578 111.844 122.133 112.219 121.758C112.219 122.367 112.195 122.93 112.148 123.445C111.961 123.492 111.961 123.492 112.148 123.445ZM98.8594 114.023C98.8594 112.992 98.9062 111.984 99 111C99.3281 111.047 99.5625 110.906 99.7031 110.578C100.641 107.812 103.523 105 108.352 102.141C108.773 101.906 108.844 101.602 108.562 101.227C108.281 100.805 107.93 100.711 107.508 100.945C103.289 103.43 100.5 105.891 99.1406 108.328C99.2344 107.156 99.3047 106.031 99.3516 104.953C99.3516 105 99.375 104.789 99.4219 104.32C101.25 100.57 104.18 97.3828 108.211 94.7578C108.586 94.5234 108.633 94.1953 108.352 93.7734C108.117 93.3984 107.789 93.3281 107.367 93.5625C104.273 95.625 101.742 98.0625 99.7734 100.875C99.9141 99 99.9609 97.4297 99.9141 96.1641C99.8672 95.8359 99.7734 95.2734 99.6328 94.4766C99.4922 93.5859 99.3984 92.9297 99.3516 92.5078C99.1641 90.8203 99.3984 89.6953 100.055 89.1328C100.102 89.0859 100.148 89.0156 100.195 88.9219C100.523 89.0625 101.625 89.5312 103.5 90.3281C101.062 92.4844 99.8672 93.5391 99.9141 93.4922C99.5859 93.8203 99.6094 94.1484 99.9844 94.4766C100.359 94.7578 100.711 94.7344 101.039 94.4062C101.508 93.9375 102.164 93.3516 103.008 92.6484C104.039 91.8047 104.695 91.2422 104.977 90.9609C106.805 91.7109 108.398 92.2031 109.758 92.4375C109.055 94.1719 109.148 97.9688 110.039 103.828C109.805 103.781 109.617 103.852 109.477 104.039C108.82 104.695 106.945 106.289 103.852 108.82C101.508 110.742 99.8438 112.477 98.8594 114.023ZM85.7109 30.2812C86.5078 30.1875 87.4922 30.0703 88.6641 29.9297C86.8828 31.2891 86.0156 31.9453 86.0625 31.8984C84.7031 31.3828 83.6484 30.9609 82.8984 30.6328C83.2266 30.5859 83.6953 30.5391 84.3047 30.4922C84.9609 30.3984 85.4297 30.3281 85.7109 30.2812ZM91.8281 29.4375C93.375 29.2031 94.7344 29.0156 95.9062 28.875C93.7969 31.0313 91.8281 32.3906 90 32.9531C89.8594 33 89.7422 33.1172 89.6484 33.3047C88.1016 32.6953 87.5156 32.4609 87.8906 32.6016C87.9375 32.6016 87.8672 32.5781 87.6797 32.5312C87.8672 32.3906 88.0781 32.2266 88.3125 32.0391C88.5938 31.8047 88.8047 31.6406 88.9453 31.5469C90.3516 30.4219 91.3125 29.7188 91.8281 29.4375ZM99.3516 28.8047C99.5859 29.1797 100.008 29.5547 100.617 29.9297C97.1953 32.1797 95.0625 33.7734 94.2188 34.7109C94.125 34.8047 94.0781 34.8984 94.0781 34.9922C92.0625 34.2422 91.1719 33.9141 91.4062 34.0078C93.4219 33.1641 95.625 31.4297 98.0156 28.8047C98.6719 28.8047 99.1172 28.8047 99.3516 28.8047ZM101.953 30.7734C101.953 30.7734 102 30.7266 102.094 30.6328C102.75 31.0078 103.547 31.3594 104.484 31.6875C103.922 32.2031 102.961 32.9531 101.602 33.9375C100.289 34.875 99.3281 35.6484 98.7188 36.2578C98.5781 36.3984 98.5078 36.5391 98.5078 36.6797C98.0859 36.5391 97.7812 36.4453 97.5938 36.3984C97.3125 36.2578 96.9609 36.1172 96.5391 35.9766C95.9766 35.7422 95.625 35.6016 95.4844 35.5547C96 34.9453 98.1562 33.3516 101.953 30.7734ZM105.961 32.3203C106.57 32.5547 107.391 32.8359 108.422 33.1641C107.906 33.5391 107.273 34.0547 106.523 34.7109C104.93 36.2109 103.969 37.0547 103.641 37.2422C103.312 37.3828 103.148 37.6172 103.148 37.9453C101.836 37.6641 100.758 37.3828 99.9141 37.1016C100.523 36.5391 101.508 35.7656 102.867 34.7812C104.227 33.7969 105.211 33 105.82 32.3906C105.867 32.3906 105.914 32.3672 105.961 32.3203ZM110.109 33.7969C110.203 33.8438 110.344 33.8906 110.531 33.9375C110.719 33.9844 110.859 34.0312 110.953 34.0781C111.281 34.1719 111.633 34.2891 112.008 34.4297C109.711 36.3516 108.164 37.5469 107.367 38.0156C106.992 38.2031 106.898 38.4844 107.086 38.8594C106.477 38.7188 105.656 38.5312 104.625 38.2969C105.281 37.9219 106.195 37.1719 107.367 36.0469C108.492 34.9219 109.406 34.1719 110.109 33.7969ZM113.133 34.8516C115.852 35.8359 118.195 36.7734 120.164 37.6641C118.148 38.6016 116.367 39.9141 114.82 41.6016C114.352 41.3203 113.906 41.0859 113.484 40.8984C113.578 40.8047 113.766 40.6406 114.047 40.4062C114.562 39.9375 115.453 39.0234 116.719 37.6641C117 37.2891 116.953 36.9609 116.578 36.6797C116.25 36.3516 115.922 36.3516 115.594 36.6797C114.75 37.6172 114.094 38.3203 113.625 38.7891C112.734 39.6797 112.195 40.1953 112.008 40.3359C110.93 39.9141 109.688 39.5156 108.281 39.1406C109.078 38.7188 110.602 37.5469 112.852 35.625C113.133 35.4375 113.227 35.1797 113.133 34.8516ZM121.711 38.4375C122.648 38.8594 123.562 39.3281 124.453 39.8438C124.594 39.75 123 40.8516 119.672 43.1484C119.297 43.4297 119.25 43.7578 119.531 44.1328C119.812 44.5547 120.141 44.625 120.516 44.3438C124.078 41.9062 125.859 40.6641 125.859 40.6172C126.328 40.8984 126.82 41.2266 127.336 41.6016C125.32 43.0078 124.383 43.6641 124.523 43.5703C124.664 43.1484 124.547 42.8438 124.172 42.6562C123.703 42.4219 123.375 42.5391 123.188 43.0078C123.047 43.4297 122.812 43.7812 122.484 44.0625C122.203 44.25 122.109 44.5078 122.203 44.8359C122.062 45.0234 122.016 45.2344 122.062 45.4688C121.594 45.4688 121.219 45.375 120.938 45.1875C120.328 44.7656 119.719 44.8125 119.109 45.3281C119.062 45.0938 118.945 44.8828 118.758 44.6953C118.008 43.8047 117.117 43.0312 116.086 42.375C117.68 40.7344 119.438 39.5156 121.359 38.7188C121.547 38.6719 121.664 38.5781 121.711 38.4375ZM128.461 42.3047C129.305 42.9141 130.078 43.5234 130.781 44.1328C130.031 44.1797 128.766 44.3438 126.984 44.625C127.172 44.625 126.422 44.7891 124.734 45.1172C125.016 44.9766 126.164 44.2031 128.18 42.7969C128.32 42.6562 128.414 42.4922 128.461 42.3047ZM131.625 47.6484C131.484 47.6016 131.344 47.6016 131.203 47.6484C126.422 49.6172 122.367 52.8281 119.039 57.2812C118.945 55.875 118.898 54.6797 118.898 53.6953C119.086 53.8828 119.32 53.9531 119.602 53.9062C119.93 53.8125 120.141 53.625 120.234 53.3438C120.469 52.5937 121.57 51.4922 123.539 50.0391C124.242 49.4766 125.32 48.7031 126.773 47.7188C129.117 47.25 130.758 47.0156 131.695 47.0156C131.695 46.875 131.672 47.0859 131.625 47.6484ZM131.555 52.7812C130.664 53.7187 128.508 55.125 125.086 57C122.32 58.5 120.445 60.2109 119.461 62.1328C119.414 61.5234 119.32 60.5859 119.18 59.3203C119.32 59.2734 119.414 59.2031 119.461 59.1094C122.742 54.4688 126.773 51.1406 131.555 49.125C131.508 50.1094 131.508 51.3281 131.555 52.7812ZM120.375 48.2109C120.375 48.2109 120.398 48.1641 120.445 48.0703C121.289 48.3047 122.273 48.3984 123.398 48.3516C122.883 48.7266 122.414 49.0547 121.992 49.3359C120.445 50.5547 119.438 51.6562 118.969 52.6406C119.156 50.8594 119.625 49.3828 120.375 48.2109ZM109.617 66.3516C109.664 66.9609 109.688 67.4531 109.688 67.8281C109.359 67.8281 108.727 67.875 107.789 67.9688C108.82 67.0312 109.43 66.4922 109.617 66.3516ZM100.125 62.2734C100.734 61.5234 101.883 60.4219 103.57 58.9688C104.133 59.25 104.742 59.5312 105.398 59.8125C105.398 59.8125 103.289 61.8281 99.0703 65.8594C98.1797 61.2656 97.9453 58.2188 98.3672 56.7188C99.2109 57.0938 100.453 57.6328 102.094 58.3359C100.688 59.5547 99.6797 60.5625 99.0703 61.3594C98.7422 61.6875 98.7656 62.0156 99.1406 62.3438C99.5156 62.6719 99.8438 62.6484 100.125 62.2734ZM107.719 61.9219C106.172 64.9219 103.5 67.3828 99.7031 69.3047C99.6562 69.3516 99.5859 69.3984 99.4922 69.4453C99.4922 68.8359 99.4453 68.2031 99.3516 67.5469C99.4453 67.5 99.5391 67.4297 99.6328 67.3359C100.008 66.9141 101.227 65.8125 103.289 64.0312C104.836 62.6719 105.961 61.4766 106.664 60.4453C107.742 60.9141 108.68 61.4062 109.477 61.9219C109.336 62.7188 109.336 63.75 109.477 65.0156C109.242 64.875 109.008 64.9219 108.773 65.1562C106.008 67.5469 104.836 68.5781 105.258 68.25C104.227 68.3906 103.758 68.4375 103.852 68.3906C106.195 66.6562 107.906 64.7109 108.984 62.5547C109.219 62.1328 109.102 61.8281 108.633 61.6406C108.211 61.4062 107.906 61.5 107.719 61.9219ZM111.023 70.7812C110.742 71.1562 110.273 71.6719 109.617 72.3281C109.289 72.7031 108.984 73.0078 108.703 73.2422C108.562 73.3828 108.422 73.5 108.281 73.5938C108.234 73.6406 108.188 73.6641 108.141 73.6641C108 73.6172 107.859 73.6406 107.719 73.7344C107.016 73.3125 106.617 73.0547 106.523 72.9609C106.758 73.1484 105.914 72.6094 103.992 71.3438C106.242 70.9688 108.422 70.7578 110.531 70.7109C110.484 70.7109 110.531 70.7109 110.672 70.7109C110.766 70.7109 110.883 70.7344 111.023 70.7812ZM112.359 71.4141C112.828 71.6953 113.438 72 114.188 72.3281C113.766 73.1719 112.781 74.3438 111.234 75.8438C109.547 74.8125 108.891 74.4141 109.266 74.6484C110.203 73.9922 111.234 72.9141 112.359 71.4141ZM123.75 76.125C124.266 76.3594 124.641 76.5469 124.875 76.6875C124.406 76.6875 123.844 76.7109 123.188 76.7578C123.469 76.4297 123.656 76.2188 123.75 76.125ZM130.5 88.0781C130.125 84.2812 129.984 81.3281 130.078 79.2188C130.547 78.75 130.617 78.1641 130.289 77.4609C130.336 76.6641 129.961 76.1719 129.164 75.9844C128.367 75.75 127.828 75.9609 127.547 76.6172C127.547 76.6172 127.453 76.6172 127.266 76.6172C127.828 75.6797 127.664 74.9531 126.773 74.4375C125.508 73.6406 123.117 72.6328 119.602 71.4141C116.414 70.3359 114.07 69.2344 112.57 68.1094C112.57 67.7344 112.5 66.9844 112.359 65.8594C112.266 64.9219 112.242 64.1719 112.289 63.6094C113.039 64.2188 113.742 64.8047 114.398 65.3672C114.82 65.7422 115.266 65.8359 115.734 65.6484C116.156 65.5078 116.461 65.2031 116.648 64.7344V65.2266C116.602 65.9297 116.906 66.4219 117.562 66.7031C118.172 67.0312 118.688 66.9844 119.109 66.5625C120.188 66.4219 124.195 65.7188 131.133 64.4531C132.07 64.2656 132.492 63.7031 132.398 62.7656C132.305 61.7812 131.789 61.3828 130.852 61.5703C130.102 61.7109 128.789 61.9688 126.914 62.3438C127.289 61.9688 127.969 61.2891 128.953 60.3047C129.75 59.4141 130.406 58.7578 130.922 58.3359C131.25 58.0547 131.273 57.7031 130.992 57.2812C130.711 56.9063 130.406 56.8594 130.078 57.1406C129.562 57.6094 128.484 58.6641 126.844 60.3047C125.391 61.7109 124.383 62.5781 123.82 62.9062C122.133 63.2344 120.703 63.4688 119.531 63.6094C119.531 63.4688 119.531 63.2578 119.531 62.9766C120 63.4922 120.398 63.4453 120.727 62.8359C120.398 63.4922 124.031 60.7734 131.625 54.6797C131.766 57.5859 131.812 59.6719 131.766 60.9375C131.766 61.875 132.234 62.2969 133.172 62.2031C134.156 62.1094 134.672 61.5938 134.719 60.6562C134.719 59.8125 134.625 57.375 134.438 53.3438C134.344 50.3437 134.461 47.9063 134.789 46.0312C134.93 45.2344 134.625 44.6953 133.875 44.4141C134.203 43.7578 134.086 43.1719 133.523 42.6562C129.352 38.8125 123.328 35.4609 115.453 32.6016C114.75 32.3203 113.461 31.875 111.586 31.2656C109.945 30.6562 108.68 30.1875 107.789 29.8594C106.383 29.3438 105.047 28.8047 103.781 28.2422C103.406 28.1016 102.938 27.8672 102.375 27.5391C102.469 26.6484 102.07 26.1562 101.18 26.0625C100.148 25.9219 95.9531 26.25 88.5938 27.0469C82.6875 27.6563 79.4531 27.8437 78.8906 27.6094C78.0938 27.2812 77.4609 27.4922 76.9922 28.2422C76.5703 28.9922 76.6641 29.6016 77.2734 30.0703C76.3359 31.8984 76.0781 34.4766 76.5 37.8047C76.5469 38.4141 76.7578 39.7734 77.1328 41.8828C77.4141 43.5703 77.5781 44.8594 77.625 45.75C77.625 46.5469 78.4453 54.9141 80.0859 70.8516C80.6953 76.4297 81.1406 85.0312 81.4219 96.6562C81.8438 111.703 82.1484 120.023 82.3359 121.617C82.4766 122.695 83.0859 123.117 84.1641 122.883C84.7734 123.773 86.1094 124.734 88.1719 125.766C89.6719 126.516 92.2969 127.523 96.0469 128.789C96.6562 129.023 97.1953 128.906 97.6641 128.438C97.7578 128.438 97.875 128.461 98.0156 128.508C103.359 128.836 108.398 128.062 113.133 126.188C113.273 126.141 113.414 126.047 113.555 125.906C114.445 126 114.961 125.625 115.102 124.781L115.242 123.797C115.289 123.703 115.242 123.469 115.102 123.094C115.148 121.922 114.609 116.438 113.484 106.641C113.391 105.891 113.227 104.836 112.992 103.477C112.805 102.07 112.664 101.039 112.57 100.383C112.055 96.3516 112.055 93.9609 112.57 93.2109C112.664 93.0703 112.734 92.8828 112.781 92.6484C113.062 92.6484 113.344 92.625 113.625 92.5781C113.859 92.5312 114.07 92.4609 114.258 92.3672H114.398C115.945 92.3203 117.656 92.2031 119.531 92.0156C119.906 92.4375 120.258 92.4375 120.586 92.0156C120.586 92.0156 120.609 91.9922 120.656 91.9453C120.656 91.9453 120.68 91.9219 120.727 91.875C122.039 91.7344 124.688 91.3828 128.672 90.8203C129.328 91.0547 129.867 90.9609 130.289 90.5391C130.758 90.2578 131.016 89.8359 131.062 89.2734C131.062 88.7578 130.875 88.3594 130.5 88.0781Z" fill="white"/>
</svg>
